<svg width="592" height="202" viewBox="0 0 592 202" fill="none" xmlns="http://www.w3.org/2000/svg">
<path d="M32 107H95C95 107 94 104.5 94 101C94 97.5 95 95 95 95H32V107Z" fill="#32896A"/>
<path d="M127 107H515V95H127C127 95 128 97.5 128 101C128 104.5 127 107 127 107Z" fill="#32896A"/>
<path d="M110.5 54C136.787 54 158 75.0956 158 101C158 126.904 136.787 148 110.5 148C84.2132 148 63 126.904 63 101C63 75.0956 84.2132 54 110.5 54Z" stroke="#32896A" stroke-width="12" stroke-linecap="round"/>
<path d="M110.028 86.0423C107.755 86.2535 106.102 86.7059 104.328 87.5881C102.75 88.3798 101.497 89.3073 100.176 90.6796C98.0697 92.8513 96.7636 95.3924 96.205 98.3934C95.986 99.5772 95.9332 101.643 96.0917 102.85C96.9976 109.681 102.312 115.005 109.107 115.879C114.784 116.611 120.423 113.972 123.617 109.101C125.308 106.514 126.214 102.993 125.957 99.9467C125.451 93.8164 121.442 88.6814 115.675 86.7888C113.825 86.1781 111.628 85.884 110.028 86.0423ZM106.049 89.5863C105.611 90.2875 105.075 91.1321 104.864 91.4714C104.502 92.0595 104.456 92.1048 104.102 92.2028C103.286 92.4441 100.342 93.1604 100.274 93.1378C100.153 93.0925 101.429 91.6448 102.131 91.0265C103.316 90.001 104.766 89.1112 106.178 88.5533C106.487 88.4326 106.767 88.3346 106.797 88.327C106.827 88.327 106.495 88.8926 106.049 89.5863ZM116.694 88.9529C118.023 89.5863 119.125 90.3403 120.212 91.3809C120.748 91.8936 121.586 92.8362 121.752 93.1227C121.82 93.2434 117.6 92.15 117.479 92.0218C117.396 91.9313 115.403 88.7719 115.207 88.4251C115.139 88.2969 115.841 88.5457 116.694 88.9529ZM114.49 90.9134L115.765 92.9267L115.154 93.7561L114.542 94.5855H110.987H107.423L106.865 93.8089C106.555 93.3866 106.298 92.987 106.298 92.9267C106.291 92.8663 106.85 91.9238 107.537 90.8304L108.782 88.8549L110.994 88.87L113.214 88.8926L114.49 90.9134ZM105.068 94.6006C105.287 94.9022 105.581 95.3094 105.717 95.4979L105.966 95.8523L105.083 98.5518C104.6 100.045 104.124 101.523 104.019 101.839L103.83 102.42L102.773 102.767C102.192 102.963 101.708 103.106 101.693 103.099C101.686 103.084 100.991 102.247 100.153 101.244L98.6359 99.4264L99.3304 97.3227L100.025 95.2265L102.29 94.6459C103.535 94.3292 104.577 94.0653 104.607 94.0653C104.638 94.0577 104.841 94.3065 105.068 94.6006ZM119.646 94.6459L121.978 95.234L122.65 97.3076C123.217 99.0343 123.307 99.3963 123.232 99.5169C123.149 99.6602 120.635 102.699 120.378 102.97C120.265 103.099 120.197 103.084 119.2 102.767L118.143 102.427L117.079 99.1324L116.014 95.8372L116.656 94.9475C117.011 94.4573 117.305 94.0577 117.305 94.0577C117.313 94.0577 118.362 94.3216 119.646 94.6459ZM115.184 99.5094C115.713 101.138 116.143 102.51 116.143 102.563C116.143 102.631 111.681 105.926 111.115 106.273C110.972 106.364 110.745 106.213 108.435 104.539C107.046 103.536 105.883 102.684 105.853 102.654C105.808 102.608 107.235 98.0315 107.725 96.6365C107.748 96.5686 108.473 96.546 110.994 96.546H114.225L115.184 99.5094ZM124.289 102.073C124.213 103.068 123.987 104.23 123.677 105.165C123.405 106.002 122.703 107.48 122.235 108.196C121.926 108.663 121.888 108.701 121.85 108.535C121.835 108.43 121.76 107.487 121.692 106.439L121.571 104.531L122.952 102.88C123.707 101.968 124.334 101.236 124.334 101.244C124.341 101.251 124.319 101.628 124.289 102.073ZM99.036 102.887L100.365 104.478V104.863C100.365 105.082 100.312 105.949 100.251 106.801C100.191 107.653 100.138 108.445 100.138 108.573C100.138 108.784 100.108 108.761 99.7909 108.271C99.3002 107.532 98.5377 105.919 98.2659 105.067C98.1376 104.675 97.9715 103.996 97.8885 103.559C97.7299 102.759 97.594 101.296 97.6695 101.296C97.6922 101.296 98.3037 102.013 99.036 102.887ZM107.37 106.122L110.02 108.045L110.028 109.289V110.533L107.854 111.401C106.661 111.876 105.634 112.26 105.574 112.26C105.491 112.26 102.977 110.488 102.033 109.764C102.003 109.742 102.222 106.13 102.305 105.353L102.35 104.916L103.49 104.546C104.117 104.343 104.653 104.184 104.675 104.192C104.698 104.192 105.913 105.067 107.37 106.122ZM118.793 104.652L119.661 104.938L119.789 107.095C119.865 108.279 119.94 109.357 119.963 109.493C119.993 109.727 119.97 109.749 118.211 111.023L116.415 112.32L114.203 111.431L111.991 110.541V109.282V108.022L114.648 106.1L117.305 104.177L117.607 104.267C117.781 104.32 118.309 104.494 118.793 104.652ZM112.912 112.992C113.961 113.406 114.829 113.761 114.844 113.776C114.905 113.828 113.161 114.19 112.444 114.273C110.964 114.439 109.024 114.288 107.431 113.881L107.061 113.791L108.978 113.014C110.035 112.592 110.919 112.237 110.949 112.237C110.979 112.23 111.862 112.569 112.912 112.992Z" fill="#32896A"/>
<path d="M183.6 86H192.24L202.32 59.32H194.52L187.92 78.56L181.36 59.32H173.56L183.6 86ZM204.291 86H211.171V59.32H204.291V86ZM214.05 82.24C216.73 84.8 220.49 86.48 225.89 86.48C233.05 86.48 237.01 82.92 237.01 77.56C237.01 71.52 230.93 70.24 226.53 69.32C223.57 68.76 221.93 68.28 221.93 66.88C221.93 65.72 222.81 64.8 225.09 64.8C227.45 64.8 230.37 65.72 232.61 67.56L236.37 62.64C233.53 60.2 229.81 58.92 225.53 58.92C218.69 58.92 214.89 62.8 214.89 67.28C214.89 73.6 221.05 74.72 225.45 75.6C228.29 76.2 230.01 76.8 230.01 78.32C230.01 79.6 228.57 80.6 226.21 80.6C222.57 80.6 219.61 79 217.69 77.08L214.05 82.24ZM240.228 86H247.108V59.32H240.228V86ZM250.548 72.68C250.548 80.8 256.668 86.48 264.828 86.48C272.988 86.48 279.068 80.8 279.068 72.68C279.068 64.56 272.988 58.88 264.828 58.88C256.668 58.88 250.548 64.56 250.548 72.68ZM272.068 72.68C272.068 77 269.228 80.4 264.828 80.4C260.388 80.4 257.548 77 257.548 72.68C257.548 68.32 260.388 64.96 264.828 64.96C269.228 64.96 272.068 68.32 272.068 72.68ZM300.693 86H307.333V59.32H300.413V74.68L289.613 59.32H282.533V86H289.413V69.88L300.693 86ZM333.617 86H340.537V81.12H343.777V75.08H340.537V59.32H330.977L320.857 75.76V81.12H333.617V86ZM333.617 65.32V75.08H327.537L333.617 65.32ZM355.339 82.24C358.019 84.8 361.779 86.48 367.179 86.48C374.339 86.48 378.299 82.92 378.299 77.56C378.299 71.52 372.219 70.24 367.819 69.32C364.859 68.76 363.219 68.28 363.219 66.88C363.219 65.72 364.099 64.8 366.379 64.8C368.739 64.8 371.659 65.72 373.899 67.56L377.659 62.64C374.819 60.2 371.099 58.92 366.819 58.92C359.979 58.92 356.179 62.8 356.179 67.28C356.179 73.6 362.339 74.72 366.739 75.6C369.579 76.2 371.299 76.8 371.299 78.32C371.299 79.6 369.859 80.6 367.499 80.6C363.859 80.6 360.899 79 358.979 77.08L355.339 82.24ZM380.157 72.68C380.157 80.8 386.277 86.48 394.437 86.48C402.597 86.48 408.677 80.8 408.677 72.68C408.677 64.56 402.597 58.88 394.437 58.88C386.277 58.88 380.157 64.56 380.157 72.68ZM401.677 72.68C401.677 77 398.837 80.4 394.437 80.4C389.997 80.4 387.157 77 387.157 72.68C387.157 68.32 389.997 64.96 394.437 64.96C398.837 64.96 401.677 68.32 401.677 72.68ZM425.022 86.48C431.662 86.48 435.142 82.76 436.862 79.32L430.942 76.52C430.062 78.64 427.782 80.4 425.022 80.4C420.862 80.4 417.782 77.04 417.782 72.68C417.782 68.32 420.862 64.96 425.022 64.96C427.782 64.96 430.062 66.72 430.942 68.84L436.862 66.04C435.102 62.52 431.662 58.88 425.022 58.88C417.022 58.88 410.782 64.44 410.782 72.68C410.782 80.88 417.022 86.48 425.022 86.48ZM452.718 86.48C459.358 86.48 462.838 82.76 464.558 79.32L458.638 76.52C457.758 78.64 455.478 80.4 452.718 80.4C448.558 80.4 445.478 77.04 445.478 72.68C445.478 68.32 448.558 64.96 452.718 64.96C455.478 64.96 457.758 66.72 458.638 68.84L464.558 66.04C462.798 62.52 459.358 58.88 452.718 58.88C444.718 58.88 438.478 64.44 438.478 72.68C438.478 80.88 444.718 86.48 452.718 86.48ZM467.533 86H487.093V80.2H474.413V75.4H486.813V69.56H474.413V65.12H487.093V59.32H467.533V86ZM505.968 86H513.848L508.408 76.2C510.888 75.32 513.728 72.84 513.728 68.2C513.728 63.24 510.368 59.32 504.448 59.32H491.088V86H497.968V76.96H501.488L505.968 86ZM506.728 68.12C506.728 69.96 505.208 71.12 503.408 71.12H497.968V65.12H503.408C505.208 65.12 506.728 66.28 506.728 68.12Z" fill="#32896A"/>
</svg>
